<svg width="1220.067" height="215.357" viewBox="0 0 1220.067 215.357" xmlns="http://www.w3.org/2000/svg"><path d="m52.112 191.43 90.78-52.987V71.788L90.778 41.023 47.07 66.661V23.93L90.777 0l92.466 52.986v107.678l-92.466 54.693Zm73.97-61.53L35.3 181.173 0 160.664V51.28l38.666-22.22v109.386q26.057-15.381 52.114-30.765z" style="fill:#ff0405;fill-rule:evenodd;stroke-width:.944495"/><g><path d="M337.167 40.258h-24.544q-.659 15.648-1.483 28.497-.823 12.849-2.306 23.226-1.318 10.213-3.624 18.12-2.306 7.907-5.93 13.673-2.306 3.788-5.271 6.26-2.8 2.47-5.93 3.953-3.13 1.482-6.26 1.976-2.965.66-5.6.66-3.79 0-6.425-.66-2.47-.494-4.942-1.647l2.471-19.438q.989.33 1.977.495.988.164 1.977.164 2.635 0 5.106-1.318 2.636-1.317 4.448-4.447 2.47-3.624 4.283-10.543 1.812-7.083 3.13-17.955 1.482-10.872 2.306-25.862.823-15.154 1.153-35.251h68.032v115.308h-22.568zM446.71 71.555l1.318-14.99h-.824l-7.742 15.485-42.994 63.42h-16.966V20.16h22.567v62.762l-1.647 15.484h.988l8.072-15.979 42.993-62.266h16.802v115.308H446.71ZM590.35 135.793H478.69l.635-20.42h12.19c.769-1.208 2.032-3.899 3.789-8.072 1.757-4.173 3.514-10.048 5.27-17.626 1.758-7.687 3.24-17.241 4.448-28.662 1.208-11.53 1.758-25.148 1.648-40.852h69.02v95.212h14.66zm-37.228-20.42V40.258H527.59c-.659 19.547-2.251 35.58-4.777 48.1-2.416 12.409-4.887 21.414-7.413 27.015zM603.034 20.16h68.362v20.098h-45.794v26.85h41.676v20.096h-41.676v28.169h46.617v20.096h-69.185zM689.021 21.314q6.919-1.318 15.155-1.977 8.401-.823 16.637-.823 8.566 0 17.132 1.482 8.73 1.318 15.649 5.6 6.918 4.119 11.201 11.696 4.448 7.413 4.448 19.438 0 10.872-3.789 18.45-3.789 7.412-10.048 12.19-6.26 4.776-14.331 6.918-7.907 2.141-16.473 2.141H718.178l-3.954-.33q-1.812-.164-2.635-.329v39.7H689.02zm33.604 16.637q-3.294 0-6.26.33-2.964.165-4.776.494v37.393q.659.164 1.976.33 1.318.164 2.8.329h4.943q4.447 0 8.73-.824 4.448-.824 7.907-2.965 3.46-2.306 5.436-6.26 2.141-3.953 2.141-10.377 0-5.436-1.976-8.896-1.977-3.624-5.272-5.765-3.13-2.141-7.248-2.965-4.118-.824-8.4-.824z" style="fill:#222;fill-opacity:1" transform="translate(-12)"/><path d="M861.16 130.692q-4.942 3.789-12.52 5.271-7.577 1.483-16.143 1.483-10.377 0-19.437-3.46-9.06-3.623-15.814-10.871t-10.707-18.45q-3.954-11.366-3.954-26.85 0-16.143 4.283-27.344 4.448-11.367 11.531-18.45 7.248-7.248 16.143-10.542 8.895-3.295 18.12-3.295 9.884 0 16.143 1.153 6.26.989 10.707 2.8l-3.294 12.026q-7.907-3.79-22.568-3.79-6.753 0-13.342 2.472-6.59 2.47-11.86 8.071-5.107 5.601-8.237 14.661-3.13 9.06-3.13 22.238 0 11.86 2.965 20.756 2.965 8.895 8.072 14.825 5.271 5.93 12.19 8.895 7.083 2.965 15.32 2.965 7.412 0 12.848-1.482 5.6-1.483 9.39-3.79zM953.9 32.35h-35.91v103.12h-13.672V32.35h-35.91V20.16H953.9zM1014.683 103.512h-42.499l-11.53 31.957h-13.508l43.652-117.12h6.26l43.817 117.12h-14.331zm-38.051-11.86h33.933l-12.848-35.087-4.118-17.46h-.165l-4.118 17.79zM1116.32 32.35h-34.428q-1.648 32.946-4.448 54.854-2.636 21.744-8.072 33.934-3.624 7.907-8.565 11.53-4.942 3.625-10.708 3.625-2.965 0-5.106-.494-2.141-.33-4.118-1.154l1.812-11.86q1.647.494 3.459.494 2.8 0 5.436-1.812 2.8-1.812 5.436-6.753 2.306-4.448 4.283-11.86 2.141-7.413 3.624-18.78 1.647-11.365 2.635-27.014.989-15.814 1.483-36.9h60.949v115.31h-13.673zM1157.995 20.16h13.672v44.806q.824-.164 2.8-.329 1.977-.33 4.283-.494 2.306-.165 4.777-.33 2.471-.164 4.448-.164 7.907 0 15.32 1.647 7.577 1.482 13.342 5.436 5.93 3.953 9.554 10.707 3.624 6.589 3.624 16.802 0 9.884-3.459 17.132-3.46 7.247-9.554 12.025-6.095 4.777-14.331 7.083-8.072 2.306-17.626 2.306-2.306 0-5.6-.165-3.295 0-7.084-.33-3.624-.164-7.413-.658-3.624-.494-6.753-1.318zm28.662 104.767q5.93 0 11.037-1.483 5.27-1.647 9.224-4.777 3.954-3.294 6.095-8.071 2.306-4.942 2.306-11.367 0-6.918-2.47-11.53-2.471-4.613-6.59-7.248-3.953-2.8-9.224-3.789-5.271-1.153-10.872-1.153-1.483 0-3.624.165l-4.283.329q-2.141.165-3.953.494-1.812.33-2.636.494v46.947q2.306.494 6.589.824 4.283.165 8.401.165z" style="fill:#222;fill-opacity:1" transform="translate(-12)"/></g><g><path d="M286.534 164.536H269.75v32.529h-4.313V160.69h25.41v36.375h-4.313zM299.681 161.054q1.975-.468 4.261-.624 2.287-.155 4.521-.155 2.39 0 4.833.467 2.494.468 4.52 1.715 2.027 1.247 3.274 3.43 1.3 2.182 1.3 5.56 0 3.326-1.196 5.612-1.195 2.286-3.17 3.741-1.974 1.403-4.52 2.027-2.547.623-5.249.623h-2.13l-1.248-.103q-.623-.052-.883-.104v13.822h-4.313zm8.886 2.962q-1.351 0-2.598.052-1.247.052-1.975.26v15.07q.26.103.831.155.572 0 1.196.052h2.026q1.767 0 3.482-.312 1.767-.363 3.17-1.247 1.403-.883 2.234-2.494.883-1.61.883-4.105 0-2.13-.831-3.534-.78-1.455-2.13-2.286-1.3-.883-2.962-1.247-1.663-.364-3.326-.364zM326.338 178.878q0-9.094 3.846-13.927 3.845-4.884 10.964-4.884 3.845 0 6.652 1.35 2.806 1.352 4.624 3.846 1.871 2.442 2.754 5.924.884 3.43.884 7.69 0 9.094-3.898 13.979-3.845 4.833-11.016 4.833-3.793 0-6.6-1.351-2.753-1.352-4.624-3.794-1.819-2.494-2.702-5.924-.884-3.481-.884-7.742zm4.573 0q0 3.014.572 5.716.623 2.702 1.87 4.78 1.248 2.027 3.17 3.274 1.975 1.195 4.625 1.195 4.833 0 7.587-3.637 2.754-3.69 2.754-11.328 0-2.962-.624-5.664-.571-2.754-1.87-4.781-1.247-2.079-3.222-3.274-1.923-1.247-4.625-1.247-4.78 0-7.535 3.69-2.702 3.637-2.702 11.276zM385.63 172.434l.31-4.157h-.207l-2.234 4.261-17.564 24.527h-2.546V160.69h4.313v24.943l-.364 4.105h.208l2.286-4.26 17.564-24.788h2.546v36.375h-4.313zM401.582 179.865v-3.637H403.557q.675 0 1.35-.052.728-.052 1.352-.052.675-.052 1.091-.156 1.351-.208 2.546-.676 1.195-.52 2.079-1.299.883-.78 1.403-1.819t.52-2.286q0-1.715-.572-2.858t-1.611-1.819q-.987-.727-2.338-.987-1.3-.312-2.806-.312-2.806 0-4.781.416-1.975.363-3.17.935l-1.143-3.43q1.04-.571 3.741-1.143 2.702-.623 6.08-.623 2.079 0 4.053.467 2.027.416 3.586 1.455 1.61.988 2.546 2.754.987 1.715.987 4.261 0 2.599-1.714 4.989-1.715 2.338-5.145 3.378v.207q3.69.52 5.82 2.755 2.13 2.234 2.13 5.975 0 2.962-1.195 5.145-1.143 2.13-3.065 3.533-1.871 1.403-4.365 2.079-2.443.624-4.989.624-3.43 0-5.664-.416-2.183-.364-3.638-.936l1.092-3.897q1.195.572 3.325.987 2.183.416 5.249.416 1.61 0 3.17-.416 1.558-.467 2.754-1.35 1.247-.936 1.974-2.287.78-1.351.78-3.222 0-3.273-2.287-4.78-2.286-1.56-5.976-1.82-.623-.051-1.195-.051-.52-.052-1.09-.052zM448.817 169.005q0 1.299-.416 2.65-.415 1.35-1.247 2.546-.831 1.143-2.13 2.027-1.3.883-3.066 1.35v.208q1.559.26 2.962.884 1.455.623 2.546 1.715 1.091 1.09 1.767 2.65.675 1.559.675 3.69 0 2.805-1.195 4.884-1.143 2.026-3.066 3.326-1.87 1.299-4.313 1.922-2.442.624-4.988.624h-2.079q-1.195 0-2.494-.104-1.3-.052-2.598-.208-1.3-.104-2.287-.364v-35.803q1.923-.312 4.47-.52 2.546-.207 5.56-.207 2.026 0 4.105.363 2.13.312 3.845 1.3 1.715.935 2.806 2.65 1.143 1.714 1.143 4.417zm-12.055 24.734q1.662 0 3.221-.363 1.56-.416 2.754-1.248 1.196-.883 1.871-2.13.728-1.247.728-2.962 0-2.13-.884-3.43-.831-1.299-2.234-2.026-1.351-.728-3.066-.988-1.715-.26-3.43-.26h-4.52v13.044q.363.104 1.039.155.675.052 1.455.104t1.61.104h1.456zm-2.858-17.044q.883 0 2.13-.052 1.247-.052 2.079-.156 1.247-.415 2.338-.987 1.091-.624 1.923-1.403.883-.831 1.35-1.87.52-1.092.52-2.34 0-1.714-.675-2.805-.624-1.143-1.715-1.819-1.091-.675-2.494-.935-1.403-.312-2.858-.312-1.715 0-3.17.104-1.403.052-2.13.208v12.367zM455.728 178.878q0-9.094 3.846-13.927 3.845-4.884 10.964-4.884 3.845 0 6.651 1.35 2.806 1.352 4.625 3.846 1.87 2.442 2.754 5.924.884 3.43.884 7.69 0 9.094-3.898 13.979-3.845 4.833-11.016 4.833-3.793 0-6.6-1.351-2.753-1.352-4.624-3.794-1.819-2.494-2.702-5.924-.884-3.481-.884-7.742zm4.573 0q0 3.014.572 5.716.623 2.702 1.87 4.78 1.248 2.027 3.17 3.274 1.975 1.195 4.625 1.195 4.833 0 7.587-3.637 2.754-3.69 2.754-11.328 0-2.962-.624-5.664-.571-2.754-1.87-4.781-1.248-2.079-3.222-3.274-1.923-1.247-4.625-1.247-4.78 0-7.535 3.69-2.702 3.637-2.702 11.276zM519.8 203.768h-2.962l-.78-6.703h-25.514l-.78 6.703h-3.013V193.22h3.69q.415-.572 1.246-2.65.884-2.131 1.715-6.028.883-3.95 1.559-9.821.675-5.924.675-14.03h19.435v32.529h4.729zm-9.042-10.548v-28.684H499.69q-.156 5.716-.624 10.288-.416 4.573-1.04 8.107-.623 3.481-1.402 6.028-.78 2.546-1.611 4.26zM547.756 195.558q-1.559 1.195-3.95 1.663-2.39.468-5.092.468-3.273 0-6.131-1.092-2.858-1.143-4.989-3.43-2.13-2.286-3.377-5.82-1.248-3.585-1.248-8.47 0-5.092 1.351-8.625 1.403-3.586 3.638-5.82 2.286-2.287 5.092-3.326 2.806-1.04 5.716-1.04 3.118 0 5.093.364 1.974.312 3.378.884l-1.04 3.793q-2.494-1.195-7.119-1.195-2.13 0-4.209.78-2.078.779-3.741 2.546-1.611 1.767-2.598 4.625-.988 2.858-.988 7.015 0 3.741.936 6.547.935 2.806 2.546 4.677 1.663 1.87 3.845 2.806 2.235.935 4.833.935 2.338 0 4.053-.467 1.767-.468 2.962-1.196zM577.012 164.536h-11.328v32.529h-4.313v-32.53h-11.329v-3.845h26.97zM604.293 169.005q0 1.299-.416 2.65-.416 1.35-1.247 2.546-.832 1.143-2.13 2.027-1.3.883-3.067 1.35v.208q1.56.26 2.962.884 1.455.623 2.547 1.715 1.09 1.09 1.766 2.65.676 1.559.676 3.69 0 2.805-1.195 4.884-1.143 2.026-3.066 3.326-1.87 1.299-4.313 1.922-2.442.624-4.989.624h-2.078q-1.195 0-2.494-.104-1.3-.052-2.599-.208-1.299-.104-2.286-.364v-35.803q1.923-.312 4.469-.52 2.546-.207 5.56-.207 2.027 0 4.105.363 2.13.312 3.845 1.3 1.715.935 2.806 2.65 1.144 1.714 1.144 4.417zm-12.056 24.734q1.663 0 3.222-.363 1.559-.416 2.754-1.248 1.195-.883 1.87-2.13.728-1.247.728-2.962 0-2.13-.883-3.43-.832-1.299-2.235-2.026-1.35-.728-3.066-.988-1.714-.26-3.43-.26h-4.52v13.044q.364.104 1.04.155.675.052 1.454.104.78.052 1.611.104h1.455zm-2.858-17.044q.883 0 2.13-.052 1.248-.052 2.08-.156 1.246-.415 2.338-.987 1.09-.624 1.922-1.403.884-.831 1.351-1.87.52-1.092.52-2.34 0-1.714-.676-2.805-.623-1.143-1.714-1.819-1.092-.675-2.495-.935-1.403-.312-2.858-.312-1.715 0-3.17.104-1.403.052-2.13.208v12.367zM611.204 178.878q0-9.094 3.845-13.927 3.846-4.884 10.965-4.884 3.845 0 6.65 1.35 2.807 1.352 4.626 3.846 1.87 2.442 2.754 5.924.883 3.43.883 7.69 0 9.094-3.897 13.979-3.845 4.833-11.016 4.833-3.794 0-6.6-1.351-2.754-1.352-4.625-3.794-1.818-2.494-2.702-5.924-.883-3.481-.883-7.742zm4.573 0q0 3.014.571 5.716.624 2.702 1.871 4.78 1.247 2.027 3.17 3.274 1.974 1.195 4.625 1.195 4.832 0 7.586-3.637 2.754-3.69 2.754-11.328 0-2.962-.623-5.664-.572-2.754-1.87-4.781-1.248-2.079-3.223-3.274-1.922-1.247-4.624-1.247-4.781 0-7.535 3.69-2.702 3.637-2.702 11.276zM690.085 172.642l.52-5.456h-.26l-1.975 4.988-9.457 16.42h-1.3l-10.028-16.472-1.871-4.936h-.26l.727 5.404v24.475h-4.053V160.69h3.222l11.38 18.603 1.715 4.054h.104l1.61-4.158 10.861-18.499h3.378v36.375h-4.313zM703.232 160.69h19.798v3.846h-15.485v11.9h14.186v3.845h-14.186v12.939h15.745v3.845h-20.058zM754.572 164.536h-11.328v32.529h-4.313v-32.53h-11.328v-3.845h26.969zM773.746 186.984H760.34l-3.638 10.081h-4.26l13.77-36.946h1.974l13.823 36.946h-4.521zm-12.003-3.741h10.704l-4.053-11.069-1.299-5.508h-.052l-1.299 5.612zM805.808 164.536h-10.86q-.52 10.392-1.403 17.304-.832 6.859-2.547 10.704-1.143 2.494-2.702 3.638-1.559 1.143-3.377 1.143-.936 0-1.611-.156-.676-.104-1.3-.364l.572-3.741q.52.156 1.092.156.883 0 1.714-.572.884-.571 1.715-2.13.728-1.403 1.351-3.742.676-2.338 1.143-5.924.52-3.585.832-8.522.312-4.988.467-11.64h19.227v36.375h-4.313zM838.234 164.536h-10.86q-.52 10.392-1.404 17.304-.831 6.859-2.546 10.704-1.143 2.494-2.702 3.638-1.56 1.143-3.378 1.143-.935 0-1.61-.156-.676-.104-1.3-.364l.572-3.741q.52.156 1.09.156.884 0 1.716-.572.883-.571 1.715-2.13.727-1.403 1.35-3.742.676-2.338 1.144-5.924.52-3.585.831-8.522.312-4.988.468-11.64h19.227v36.375h-4.313zM849.873 178.878q0-9.094 3.846-13.927 3.845-4.884 10.964-4.884 3.845 0 6.651 1.35 2.807 1.352 4.625 3.846 1.871 2.442 2.754 5.924.884 3.43.884 7.69 0 9.094-3.898 13.979-3.845 4.833-11.016 4.833-3.793 0-6.6-1.351-2.753-1.352-4.624-3.794-1.819-2.494-2.702-5.924-.884-3.481-.884-7.742zm4.573 0q0 3.014.572 5.716.623 2.702 1.87 4.78 1.248 2.027 3.17 3.274 1.975 1.195 4.625 1.195 4.833 0 7.587-3.637 2.754-3.69 2.754-11.328 0-2.962-.624-5.664-.571-2.754-1.87-4.781-1.247-2.079-3.222-3.274-1.923-1.247-4.625-1.247-4.78 0-7.535 3.69-2.702 3.637-2.702 11.276zM893.679 180.229h-2.442v16.836h-4.313V160.69h4.313v16.94l2.338-.727 12.211-16.213h4.989l-12.16 15.641-2.182 1.715 2.65 2.079 13.303 16.94h-5.456zM916.075 178.878q0-9.094 3.846-13.927 3.845-4.884 10.964-4.884 3.845 0 6.651 1.35 2.806 1.352 4.625 3.846 1.87 2.442 2.754 5.924.884 3.43.884 7.69 0 9.094-3.898 13.979-3.845 4.833-11.016 4.833-3.793 0-6.6-1.351-2.754-1.352-4.624-3.794-1.819-2.494-2.702-5.924-.884-3.481-.884-7.742zm4.573 0q0 3.014.572 5.716.623 2.702 1.87 4.78 1.247 2.027 3.17 3.274 1.975 1.195 4.625 1.195 4.833 0 7.587-3.637 2.754-3.69 2.754-11.328 0-2.962-.624-5.664-.571-2.754-1.87-4.781-1.248-2.079-3.222-3.274-1.923-1.247-4.625-1.247-4.78 0-7.535 3.69-2.702 3.637-2.702 11.276zM974.898 180.385h-17.46v16.68h-4.313V160.69h4.313v15.85h17.46v-15.85h4.313v36.375h-4.313zM1011.325 195.558q-1.559 1.195-3.95 1.663-2.39.468-5.092.468-3.274 0-6.132-1.092-2.858-1.143-4.988-3.43-2.13-2.286-3.378-5.82-1.247-3.585-1.247-8.47 0-5.092 1.351-8.625 1.403-3.586 3.638-5.82 2.286-2.287 5.092-3.326 2.806-1.04 5.716-1.04 3.118 0 5.093.364 1.974.312 3.377.884l-1.039 3.793q-2.494-1.195-7.12-1.195-2.13 0-4.208.78-2.079.779-3.742 2.546-1.61 1.767-2.598 4.625-.987 2.858-.987 7.015 0 3.741.935 6.547.936 2.806 2.547 4.677 1.662 1.87 3.845 2.806 2.234.935 4.832.935 2.339 0 4.054-.467 1.766-.468 2.962-1.196zM1040.58 164.536h-11.328v32.529h-4.313v-32.53h-11.328v-3.845h26.97zM1045.933 161.054q1.974-.468 4.26-.624 2.287-.155 4.522-.155 2.39 0 4.832.467 2.494.468 4.521 1.715 2.027 1.247 3.274 3.43 1.299 2.182 1.299 5.56 0 3.326-1.195 5.612-1.196 2.286-3.17 3.741-1.975 1.403-4.521 2.027-2.546.623-5.248.623H1052.376l-1.247-.103q-.624-.052-.883-.104v13.822h-4.313zm8.886 2.962q-1.352 0-2.599.052t-1.974.26v15.07q.26.103.831.155.572 0 1.195.052h2.027q1.767 0 3.481-.312 1.767-.363 3.17-1.247 1.403-.883 2.235-2.494.883-1.61.883-4.105 0-2.13-.831-3.534-.78-1.455-2.13-2.286-1.3-.883-2.963-1.247-1.663-.364-3.325-.364zM1084.23 179.865l1.351 4.625h.26l1.04-4.78 6.962-19.02h4.417l-9.198 23.644q-1.402 3.69-2.494 6.184-1.039 2.442-2.13 4-1.092 1.508-2.339 2.183-1.247.624-3.066.624-1.714 0-2.754-.26-.987-.312-1.87-.883l1.299-3.586q1.04.572 1.922.728.884.156 1.611.156 1.455 0 2.443-1.455.987-1.507 1.714-4.417l-13.458-26.918h4.988zM1109.484 180.229h-2.442v16.836h-4.313V160.69h4.313v16.94l2.338-.727 12.212-16.213h4.989l-12.16 15.641-2.183 1.715 2.65 2.079 13.303 16.94h-5.456zM1164.254 203.768h-2.962l-.78-6.703h-26.085V160.69h4.313v32.53h16.369v-32.53h4.313v32.53h4.832zM1192.367 172.434l.311-4.157h-.208l-2.234 4.261-17.564 24.527h-2.546V160.69h4.313v24.943l-.364 4.105h.208l2.287-4.26 17.563-24.788h2.547v36.375h-4.313zM1227.754 172.434l.312-4.157h-.208l-2.235 4.261-17.563 24.527h-2.547V160.69h4.313v24.943l-.363 4.105h.208l2.286-4.26 17.564-24.788h2.546v36.375h-4.313zm-13.25-20.578q.207 1.923 1.454 2.962 1.247 1.04 3.326 1.04 2.078 0 3.274-1.04 1.247-1.039 1.507-2.91l3.689.884q-.572 2.806-2.65 4.469-2.027 1.61-5.872 1.61-3.69 0-6.08-1.402-2.338-1.455-2.754-4.573z" style="fill:#222;fill-opacity:1" transform="translate(-12)"/></g></svg>